<?xml version="1.0" standalone="no"?>
<!DOCTYPE svg PUBLIC "-//W3C//DTD SVG 20010904//EN"
 "http://www.w3.org/TR/2001/REC-SVG-20010904/DTD/svg10.dtd">
<svg version="1.0" xmlns="http://www.w3.org/2000/svg"
 width="502.000000pt" height="159.000000pt" viewBox="0 0 502.000000 159.000000"
 preserveAspectRatio="xMidYMid meet">

<g transform="translate(0.000000,159.000000) scale(0.100000,-0.100000)"
fill="#000000" stroke="none">
<path d="M644 1167 c-2 -7 -3 -105 -2 -217 l3 -205 32 -3 32 -3 3 73 c3 64 5
73 23 76 17 2 23 -8 40 -70 19 -70 21 -73 53 -76 37 -4 37 -3 16 84 -15 60
-15 66 0 83 13 14 16 40 16 129 0 103 -2 112 -22 126 -29 21 -186 23 -194 3z
m144 -134 l3 -73 -41 0 -40 0 0 68 c0 38 3 72 7 76 4 4 21 6 38 4 l30 -3 3
-72z"/>
<path d="M2327 1173 c-4 -3 -7 -102 -7 -220 l0 -213 85 0 c78 0 88 2 110 25
25 24 25 27 25 195 0 168 0 171 -25 195 -21 22 -33 25 -103 25 -43 0 -82 -3
-85 -7z m138 -213 l0 -145 -35 0 -35 0 -3 134 c-1 74 0 141 3 149 3 8 17 12
37 10 l33 -3 0 -145z"/>
<path d="M2760 959 l0 -220 33 3 32 3 3 73 c3 63 5 72 22 72 19 0 22 -5 47
-110 8 -30 14 -35 41 -38 38 -4 39 3 17 89 -15 57 -15 61 5 86 17 22 20 40 20
120 0 86 -2 96 -25 118 -22 23 -32 25 -110 25 l-85 0 0 -221z m145 76 l0 -70
-37 -3 -38 -3 0 76 0 76 38 -3 37 -3 0 -70z"/>
<path d="M3685 1155 c-25 -24 -25 -27 -25 -195 0 -168 0 -171 25 -195 20 -21
34 -25 83 -25 44 0 66 5 83 19 24 19 24 22 24 201 0 179 0 182 -24 201 -17 14
-39 19 -83 19 -49 0 -63 -4 -83 -25z m120 -195 l0 -145 -35 0 -35 0 -3 134
c-1 74 0 141 3 149 3 8 17 12 37 10 l33 -3 0 -145z"/>
<path d="M3944 1167 c-2 -7 -3 -105 -2 -217 l3 -205 32 -3 32 -3 3 73 c3 64 5
73 23 76 17 2 23 -8 40 -70 19 -70 21 -73 53 -76 37 -4 37 -3 16 84 -15 60
-15 66 0 83 13 14 16 40 16 129 0 103 -2 112 -22 126 -29 21 -186 23 -194 3z
m144 -134 l3 -73 -41 0 -40 0 0 68 c0 38 3 72 7 76 4 4 21 6 38 4 l30 -3 3
-72z"/>
<path d="M1015 1148 c-19 -84 -85 -393 -85 -400 0 -4 15 -8 34 -8 33 0 35 2
43 43 l9 42 49 0 50 0 9 -42 c8 -40 11 -43 42 -43 19 0 34 3 34 8 0 7 -72 344
-85 400 -5 19 -12 22 -50 22 -38 0 -45 -3 -50 -22z m80 -220 l7 -38 -36 0
c-20 0 -36 3 -36 8 0 4 7 42 15 85 8 43 15 82 16 85 2 9 26 -92 34 -140z"/>
<path d="M1408 993 l-3 -178 -35 0 c-32 0 -35 3 -38 33 -3 28 -7 32 -33 32
-29 0 -29 -1 -29 -54 0 -70 19 -86 103 -86 48 0 62 4 82 25 25 24 25 26 25
215 l0 190 -35 0 -35 0 -2 -177z"/>
<path d="M1780 1163 c0 -8 -71 -343 -85 -400 -5 -21 -2 -23 29 -23 36 0 37 1
50 63 6 25 10 27 56 27 l49 0 7 -45 c6 -43 8 -45 40 -45 26 0 34 4 34 18 0 9
-20 105 -43 212 l-42 195 -48 3 c-26 2 -47 -1 -47 -5z m66 -170 c20 -102 20
-103 -22 -103 -26 0 -35 4 -31 13 3 7 11 48 17 90 7 43 15 75 18 72 3 -2 11
-35 18 -72z"/>
<path d="M2030 955 l0 -215 35 0 35 0 1 123 0 122 46 -122 45 -123 34 0 34 0
0 215 0 215 -35 0 -35 0 0 -117 c0 -68 -4 -113 -9 -108 -5 6 -26 58 -46 118
l-38 107 -33 0 -34 0 0 -215z"/>
<path d="M3130 1163 c0 -8 -71 -343 -85 -400 -5 -21 -2 -23 29 -23 36 0 37 1
50 63 6 25 10 27 56 27 l49 0 7 -45 c6 -43 8 -45 40 -45 26 0 34 4 34 18 0 9
-20 105 -43 212 l-42 195 -48 3 c-26 2 -47 -1 -47 -5z m66 -170 c20 -102 20
-103 -22 -103 -26 0 -35 4 -31 13 3 7 11 48 17 90 7 43 15 75 18 72 3 -2 11
-35 18 -72z"/>
<path d="M3518 993 l-3 -178 -30 0 c-27 0 -30 4 -33 33 -3 29 -6 32 -38 32
l-34 0 0 -49 c0 -76 33 -98 132 -89 77 8 78 11 78 235 l0 193 -35 0 -35 0 -2
-177z"/>
<path d="M4315 1148 c-19 -84 -85 -393 -85 -400 0 -4 15 -8 34 -8 33 0 35 2
43 43 l9 42 49 0 50 0 9 -42 c8 -40 11 -43 42 -43 19 0 34 3 34 8 0 7 -72 344
-85 400 -5 19 -12 22 -50 22 -38 0 -45 -3 -50 -22z m80 -220 l7 -38 -36 0
c-20 0 -36 3 -36 8 0 4 7 42 15 85 8 43 15 82 16 85 2 9 26 -92 34 -140z"/>
<path d="M1728 388 c-10 -23 -16 -44 -13 -46 3 -3 5 0 5 6 0 7 14 12 30 12 17
0 30 -5 30 -12 0 -6 2 -9 5 -6 6 6 -26 88 -34 88 -3 0 -14 -19 -23 -42z m35 2
c4 -15 0 -20 -14 -20 -17 0 -18 3 -9 20 6 11 12 20 14 20 2 0 6 -9 9 -20z"/>
<path d="M1821 383 c1 -26 3 -40 6 -30 6 21 32 22 47 2 9 -12 11 -6 11 27 0
41 -1 43 -32 46 l-33 3 1 -48z m59 17 c0 -15 -7 -20 -25 -20 -18 0 -25 5 -25
20 0 15 7 20 25 20 18 0 25 -5 25 -20z"/>
<path d="M1932 418 c-27 -27 -7 -78 29 -78 10 0 20 4 23 8 2 4 -8 8 -22 7 -23
0 -27 4 -27 30 0 26 4 30 27 30 14 -1 24 3 22 7 -8 12 -38 10 -52 -4z"/>
<path d="M2033 385 c0 -27 2 -40 4 -27 3 15 11 22 28 22 17 0 25 -7 28 -22 2
-13 4 0 4 27 0 28 -2 40 -4 28 -3 -16 -11 -23 -28 -23 -17 0 -25 7 -28 23 -2
12 -4 0 -4 -28z"/>
<path d="M2143 385 c0 -27 2 -38 4 -22 2 15 2 37 0 50 -2 12 -4 0 -4 -28z"/>
<path d="M2193 423 c12 -3 17 -16 19 -46 l1 -42 4 40 c3 22 10 43 16 47 7 4
-4 7 -23 7 -19 -1 -27 -3 -17 -6z"/>
<path d="M2270 385 c0 -44 0 -45 33 -44 30 2 30 2 5 6 -36 6 -36 30 0 36 l27
4 -27 2 c-17 0 -28 7 -28 15 0 8 12 17 28 19 25 4 25 4 -5 6 -33 1 -33 0 -33
-44z"/>
<path d="M2398 423 c6 -2 18 -2 25 0 6 3 1 5 -13 5 -14 0 -19 -2 -12 -5z"/>
<path d="M2473 423 c12 -3 17 -16 19 -46 l1 -42 4 40 c3 22 10 43 16 47 7 4
-4 7 -23 7 -19 -1 -27 -3 -17 -6z"/>
<path d="M2551 393 c-1 -34 3 -43 19 -48 31 -10 50 12 49 54 l-2 36 -6 -40
c-5 -31 -10 -40 -26 -40 -16 0 -21 9 -26 40 l-6 40 -2 -42z"/>
<path d="M2661 383 c1 -27 3 -40 6 -30 2 9 11 17 18 17 8 0 19 -8 25 -17 11
-17 11 -17 6 1 -4 10 -1 25 5 32 16 19 -6 44 -37 44 -22 0 -24 -4 -23 -47z
m54 17 c0 -8 -10 -16 -22 -18 -18 -3 -23 2 -23 18 0 16 5 21 23 18 12 -2 22
-10 22 -18z"/>
<path d="M2760 385 c0 -44 0 -45 33 -44 30 2 30 2 5 6 -16 2 -28 10 -28 18 0
8 12 16 28 18 l27 4 -27 2 c-17 0 -28 7 -28 15 0 8 12 17 28 19 25 4 25 4 -5
6 -33 1 -33 0 -33 -44z"/>
<path d="M2911 383 c1 -27 4 -38 6 -26 2 13 13 24 26 26 l22 4 -22 2 c-13 0
-23 7 -23 15 0 8 10 17 23 19 19 4 18 4 -5 6 -27 1 -28 -1 -27 -46z"/>
<path d="M2993 385 c0 -27 2 -38 4 -22 2 15 2 37 0 50 -2 12 -4 0 -4 -28z"/>
<path d="M3041 383 c1 -27 3 -40 6 -30 2 9 11 17 18 17 8 0 19 -8 25 -17 11
-17 11 -17 6 1 -4 10 -1 25 5 32 16 19 -6 44 -37 44 -22 0 -24 -4 -23 -47z
m54 17 c0 -8 -10 -16 -22 -18 -18 -3 -23 2 -23 18 0 16 5 21 23 18 12 -2 22
-10 22 -18z"/>
<path d="M3151 383 c2 -34 3 -39 6 -18 l5 30 13 -25 13 -25 14 30 13 29 6 -34
c6 -33 6 -32 8 13 0 26 -1 47 -4 47 -2 0 -12 -15 -21 -32 l-17 -33 -14 33 c-7
17 -15 32 -18 32 -3 0 -4 -21 -4 -47z"/>
<path d="M2365 400 c-3 -11 -2 -27 2 -35 6 -11 9 -5 9 20 0 40 -2 43 -11 15z"/>
<path d="M2398 343 c7 -3 16 -2 19 1 4 3 -2 6 -13 5 -11 0 -14 -3 -6 -6z"/>
</g>
</svg>
